{"title":"BabysitterMovie - Jodie Moore","uid":11067027,"size":201310466,"categoryP":"porn","categoryS":"movie_clips","magnet":"?xt=urn:btih:87b428e928edfc71e06751cbe741565310ae2775&amp;dn=BabysitterMovie+-+Jodie+Moore&amp;tr=udp%3A%2F%2Ftracker.openbittorrent.com%3A80&amp;tr=udp%3A%2F%2Fopen.demonii.com%3A1337&amp;tr=udp%3A%2F%2Ftracker.coppersurfer.tk%3A6969&amp;tr=udp%3A%2F%2Fexodus.desync.com%3A6969","seeders":0,"leechers":0,"uploader":"supertongo","files":1,"time":1411230883,"description":"BabysitterMovie - Jodie Moore anal scene\n\n\n:::Media info:::\n\nGeneral\nFormat                         : QuickTime\nFormat/Info                    : Original Apple specifications\nFile size                      : 192 MiB\nDuration                       : 16mn 58s\nOverall bit rate mode          : Variable\nOverall bit rate               : 1 581 Kbps\nWriting application            : Lavf52.64.2\n\nVideo\nID                             : 1\nFormat                         : AVC\nFormat/Info                    : Advanced Video Codec\nFormat profile                 : &lt;a class=&quot;__cf_email__&quot; href=&quot;/cdn-cgi/l/email-protection&quot; data-cfemail=&quot;632b0a040b232f504d52&quot;&gt;[email&amp;#160;protected]&lt;/a&gt;&lt;script data-cfhash='f9e31' type=&quot;text/javascript&quot;&gt;\n/* &lt;![CDATA[ */!function(){try{var t=&quot;currentScript&quot;in document?document.currentScript:function(){for(var t=document.getElementsByTagName(&quot;script&quot;),e=t.length;e--;)if(t[e].getAttribute(&quot;data-cfhash&quot;))return t[e]}();if(t&amp;&amp;t.previousSibling){var e,r,n,i,c=t.previousSibling,a=c.getAttribute(&quot;data-cfemail&quot;);if(a){for(e=&quot;&quot;,r=parseInt(a.substr(0,2),16),n=2;a.length-n;n+=2)i=parseInt(a.substr(n,2),16)^r,e+=String.fromCharCode(i);e=document.createTextNode(e),c.parentNode.replaceChild(e,c)}t.parentNode.removeChild(t);}}catch(u){}}()/* ]]&gt; */&lt;/script&gt;\nFormat settings, CABAC         : Yes\nFormat settings, ReFrames      : 2 frames\nCodec ID                       : avc1\nCodec ID/Info                  : Advanced Video Coding\nDuration                       : 16mn 58s\nBit rate                       : 1 500 Kbps\nWidth                          : 960 pixels\nHeight                         : 720 pixels\nDisplay aspect ratio           : 4:3\nFrame rate mode                : Constant\nFrame rate                     : 25.000 fps\nColor space                    : YUV\nChroma subsampling             : 4:2:0\nBit depth                      : 8 bits\nScan type                      : Progressive\nBits/(Pixel*Frame)             : 0.087\nStream size                    : 184 MiB (96%)\n\nAudio\nID                             : 2\nFormat                         : AAC\nFormat/Info                    : Advanced Audio Codec\nFormat profile                 : LC\nCodec ID                       : 40\nDuration                       : 16mn 58s\nBit rate mode                  : Variable\nBit rate                       : 64.0 Kbps\nChannel(s)                     : 2 channels\nChannel positions              : Front: L R\nSampling rate                  : 44.1 KHz\nCompression mode               : Lossy\nStream size                    : 7.77 MiB (4%)\n\n\n &lt;a href=&quot;\nhttp://bayimg.com/NaAdhaagi&quot; rel=&quot;nofollow&quot; target=&quot;_NEW&quot;&gt;\nhttp://bayimg.com/NaAdhaagi&lt;/a&gt;\n\n","torrent":{"xt":"urn:btih:87b428e928edfc71e06751cbe741565310ae2775","amp;dn":"BabysitterMovie+-+Jodie+Moore","amp;tr":["udp%3A%2F%2Ftracker.openbittorrent.com%3A80","udp%3A%2F%2Fopen.demonii.com%3A1337","udp%3A%2F%2Ftracker.coppersurfer.tk%3A6969","udp%3A%2F%2Fexodus.desync.com%3A6969"],"infoHash":"87b428e928edfc71e06751cbe741565310ae2775","infoHashBuffer":{"type":"Buffer","data":[135,180,40,233,40,237,252,113,224,103,81,203,231,65,86,83,16,174,39,117]},"announce":[],"urlList":[]}}